HIERARCHY
ROOT Hips
{
	OFFSET -14.64140 90.27770 -84.91600
	CHANNELS 6 Xposition Yposition Zposition Zrotation Xrotation Yrotation
	JOINT Spine
	{
		OFFSET 0.00000 13.20850 -1.60436
		CHANNELS 3 Zrotation Xrotation Yrotation
		JOINT Spine1
		{
			OFFSET 0.00000 8.61716 0.00000
			CHANNELS 3 Zrotation Xrotation Yrotation
			JOINT Spine2
			{
				OFFSET 0.00000 8.61717 0.00000
				CHANNELS 3 Zrotation Xrotation Yrotation
				JOINT Spine3
				{
					OFFSET 0.00000 8.61717 0.00000
					CHANNELS 3 Zrotation Xrotation Yrotation
					JOINT Neck
					{
						OFFSET 0.00000 11.07920 1.10792
						CHANNELS 3 Zrotation Xrotation Yrotation
						JOINT Neck1
						{
							OFFSET 0.00000 7.08032 0.00000
							CHANNELS 3 Zrotation Xrotation Yrotation
							JOINT Head
							{
								OFFSET 0.00000 7.08031 0.00000
								CHANNELS 3 Zrotation Xrotation Yrotation
								End site
								{
									OFFSET 0.00000 0.00000 0.00000
								}
							}
						}
					}
					JOINT RightShoulder
					{
						OFFSET -0.01000 7.91373 5.19711
						CHANNELS 3 Zrotation Xrotation Yrotation
						JOINT RightArm
						{
							OFFSET -18.41580 0.00000 0.00000
							CHANNELS 3 Zrotation Xrotation Yrotation
							JOINT RightForeArm
							{
								OFFSET -29.11090 0.00000 0.00000
								CHANNELS 3 Zrotation Xrotation Yrotation
								JOINT RightHand
								{
									OFFSET -24.65040 0.00000 0.00000
									CHANNELS 3 Zrotation Xrotation Yrotation
									JOINT RightHandThumb1
									{
										OFFSET -5.35114 -0.85590 3.97906
										CHANNELS 3 Zrotation Xrotation Yrotation
										JOINT RightHandThumb2
										{
											OFFSET -4.52789 0.00000 0.00000
											CHANNELS 3 Zrotation Xrotation Yrotation
											JOINT RightHandThumb3
											{
												OFFSET -2.46976 0.00000 0.00000
												CHANNELS 3 Zrotation Xrotation Yrotation
												End site
												{
													OFFSET 0.00000 0.00000 0.00000
												}
											}
										}
									}
									JOINT RightHandIndex1
									{
										OFFSET -14.26970 0.00000 2.88139
										CHANNELS 3 Zrotation Xrotation Yrotation
										JOINT RightHandIndex2
										{
											OFFSET -5.48836 0.00000 0.00000
											CHANNELS 3 Zrotation Xrotation Yrotation
											JOINT RightHandIndex3
											{
												OFFSET -3.01859 0.00000 0.00000
												CHANNELS 3 Zrotation Xrotation Yrotation
												End site
												{
													OFFSET 0.00000 0.00000 0.00000
												}
											}
										}
									}
									JOINT RightHandMiddle1
									{
										OFFSET -14.26970 0.00000 -0.09147
										CHANNELS 3 Zrotation Xrotation Yrotation
										JOINT RightHandMiddle2
										{
											OFFSET -6.17441 0.00000 0.00000
											CHANNELS 3 Zrotation Xrotation Yrotation
											JOINT RightHandMiddle3
											{
												OFFSET -3.56743 0.00000 0.00000
												CHANNELS 3 Zrotation Xrotation Yrotation
												End site
												{
													OFFSET 0.00000 0.00000 0.00000
												}
											}
										}
									}
									JOINT RightHandRing1
									{
										OFFSET -12.69180 0.00000 -3.06433
										CHANNELS 3 Zrotation Xrotation Yrotation
										JOINT RightHandRing2
										{
											OFFSET -5.62556 0.00000 0.00000
											CHANNELS 3 Zrotation Xrotation Yrotation
											JOINT RightHandRing3
											{
												OFFSET -3.56744 0.00000 0.00000
												CHANNELS 3 Zrotation Xrotation Yrotation
												End site
												{
													OFFSET 0.00000 0.00000 0.00000
												}
											}
										}
									}
									JOINT RightHandPinky1
									{
										OFFSET -11.11390 0.00000 -6.03719
										CHANNELS 3 Zrotation Xrotation Yrotation
										JOINT RightHandPinky2
										{
											OFFSET -4.52789 0.00000 0.00000
											CHANNELS 3 Zrotation Xrotation Yrotation
											JOINT RightHandPinky3
											{
												OFFSET -2.46976 0.00000 0.00000
												CHANNELS 3 Zrotation Xrotation Yrotation
												End site
												{
													OFFSET 0.00000 0.00000 0.00000
												}
											}
										}
									}
								}
							}
						}
					}
					JOINT LeftShoulder
					{
						OFFSET 0.01000 7.91373 5.19711
						CHANNELS 3 Zrotation Xrotation Yrotation
						JOINT LeftArm
						{
							OFFSET 18.41580 0.00000 0.00000
							CHANNELS 3 Zrotation Xrotation Yrotation
							JOINT LeftForeArm
							{
								OFFSET 29.11090 0.00000 0.00000
								CHANNELS 3 Zrotation Xrotation Yrotation
								JOINT LeftHand
								{
									OFFSET 24.65040 0.00000 0.00000
									CHANNELS 3 Zrotation Xrotation Yrotation
									JOINT LeftHandThumb1
									{
										OFFSET 5.35114 -0.85590 3.97906
										CHANNELS 3 Zrotation Xrotation Yrotation
										JOINT LeftHandThumb2
										{
											OFFSET 4.52789 0.00000 0.00000
											CHANNELS 3 Zrotation Xrotation Yrotation
											JOINT LeftHandThumb3
											{
												OFFSET 2.46977 0.00000 0.00000
												CHANNELS 3 Zrotation Xrotation Yrotation
												End site
												{
													OFFSET 0.00000 0.00000 0.00000
												}
											}
										}
									}
									JOINT LeftHandIndex1
									{
										OFFSET 14.26970 0.00000 2.88139
										CHANNELS 3 Zrotation Xrotation Yrotation
										JOINT LeftHandIndex2
										{
											OFFSET 5.48836 0.00000 0.00000
											CHANNELS 3 Zrotation Xrotation Yrotation
											JOINT LeftHandIndex3
											{
												OFFSET 3.01859 0.00000 0.00000
												CHANNELS 3 Zrotation Xrotation Yrotation
												End site
												{
													OFFSET 0.00000 0.00000 0.00000
												}
											}
										}
									}
									JOINT LeftHandMiddle1
									{
										OFFSET 14.26970 0.00000 -0.09147
										CHANNELS 3 Zrotation Xrotation Yrotation
										JOINT LeftHandMiddle2
										{
											OFFSET 6.17440 0.00000 0.00000
											CHANNELS 3 Zrotation Xrotation Yrotation
											JOINT LeftHandMiddle3
											{
												OFFSET 3.56744 0.00000 0.00000
												CHANNELS 3 Zrotation Xrotation Yrotation
												End site
												{
													OFFSET 0.00000 0.00000 0.00000
												}
											}
										}
									}
									JOINT LeftHandRing1
									{
										OFFSET 12.69180 0.00000 -3.06433
										CHANNELS 3 Zrotation Xrotation Yrotation
										JOINT LeftHandRing2
										{
											OFFSET 5.62556 0.00000 0.00000
											CHANNELS 3 Zrotation Xrotation Yrotation
											JOINT LeftHandRing3
											{
												OFFSET 3.56744 0.00000 0.00000
												CHANNELS 3 Zrotation Xrotation Yrotation
												End site
												{
													OFFSET 0.00000 0.00000 0.00000
												}
											}
										}
									}
									JOINT LeftHandPinky1
									{
										OFFSET 11.11390 0.00000 -6.03719
										CHANNELS 3 Zrotation Xrotation Yrotation
										JOINT LeftHandPinky2
										{
											OFFSET 4.52789 0.00000 0.00000
											CHANNELS 3 Zrotation Xrotation Yrotation
											JOINT LeftHandPinky3
											{
												OFFSET 2.46976 0.00000 0.00000
												CHANNELS 3 Zrotation Xrotation Yrotation
												End site
												{
													OFFSET 0.00000 0.00000 0.00000
												}
											}
										}
									}
								}
							}
						}
					}
					JOINT pCube4
					{
						OFFSET 0.00000 10.91090 1.10792
						CHANNELS 3 Zrotation Xrotation Yrotation
						End site
						{
							OFFSET 0.00000 0.00000 0.00000
						}
					}
				}
			}
		}
	}
	JOINT RightUpLeg
	{
		OFFSET -9.98441 0.00000 0.00000
		CHANNELS 3 Zrotation Xrotation Yrotation
		JOINT RightLeg
		{
			OFFSET 0.00000 -42.11790 0.00000
			CHANNELS 3 Zrotation Xrotation Yrotation
			JOINT RightFoot
			{
				OFFSET 0.00000 -45.00020 -0.00001
				CHANNELS 3 Zrotation Xrotation Yrotation
				JOINT RightForeFoot
				{
					OFFSET 0.00000 -3.74820 0.00000
					CHANNELS 3 Zrotation Xrotation Yrotation
					JOINT RightToeBase
					{
						OFFSET 0.00000 0.06325 14.43120
						CHANNELS 3 Zrotation Xrotation Yrotation
						End site
						{
							OFFSET 0.00000 0.00000 0.00000
						}
					}
				}
			}
		}
	}
	JOINT LeftUpLeg
	{
		OFFSET 9.98441 0.00000 0.00000
		CHANNELS 3 Zrotation Xrotation Yrotation
		JOINT LeftLeg
		{
			OFFSET 0.00000 -42.11800 0.00000
			CHANNELS 3 Zrotation Xrotation Yrotation
			JOINT LeftFoot
			{
				OFFSET 0.00000 -45.00070 0.00000
				CHANNELS 3 Zrotation Xrotation Yrotation
				JOINT LeftForeFoot
				{
					OFFSET 0.00000 -3.74824 0.00000
					CHANNELS 3 Zrotation Xrotation Yrotation
					JOINT LeftToeBase
					{
						OFFSET 0.00000 0.06325 14.43110
						CHANNELS 3 Zrotation Xrotation Yrotation
						End site
						{
							OFFSET 0.00000 0.00000 0.00000
						}
					}
				}
			}
		}
	}
}
MOTION
Frames: 4
Frame Time: 0.050000
-0.0160936852165463 0.041946123577698446 -0.025516586152195972 -0.014952593629318854 -0.04038126964876275 0.0023774186021513436 -1.3072152088899598 0.7159404726696948 -0.9508776077214423 -0.9733740279813548 3.886502347572669 0.4062034048188679 -1.1832834423994332 -1.733080306630514 -0.8187908512974466 0.9736844676941929 0.47138007622773304 -0.7630582704482419 0.8404750282842217 12.454708525385794 -2.645591726414963 -0.011517314730791938 -0.7163812282219914 -8.001091597218805 0.9582098016816011 -16.155524110308452 -0.6289961047399031 -4.634841920948017 1.478408474315883 -15.691555796124561 72.83919451132016 23.03806874576451 3.6623056333175206 2.2838998343634187 2.045656409022837 41.469258795874 21.170483039482683 -0.0956291984351491 -3.9164967525546817 4.5094459915571505 -0.13759749892653889 -1.5606865184285945 -0.04826446128129178 -0.015308724984732252 -56.253299121313496 0.0432218911901174 -0.03149199199824523 -56.28142183290943 -38.76926727704512 0.03325479836723621 -0.005334548106772089 -0.03000476481598495 -0.04212191683037599 0.02949479883720061 -0.016944495602066803 0.004933529277082172 -0.001620705261523658 -36.73779195289037 -0.018087609465927124 0.01855160583445092 -0.04223233717850892 -0.0176325969938077 -0.006491711467445673 -0.0005766017275895431 -0.0018865555314378718 -0.006754681075430115 -19.80235572658484 0.046499925842571524 0.008370554296289698 0.0209514002414599 0.006309822026086578 0.030468506178313422 -0.035262849192514316 0.0201680769385469 0.00220616599106899 24.069276017048892 -0.03585925492420108 -0.034527642285151934 28.86850637095897 0.01347996999155262 0.02430692982283348 28.884268579075986 0.02471458006424442 -0.0325878760405508 3.5524851654440446 0.9514870166456048 13.471251984684239 -71.82202013949632 26.443360420598115 -0.23424086511627884 -3.834382978760849 -8.708343468522207 -42.28409898852827 -14.193265343839956 -0.670101741414531 2.979128034840909 -0.4768739681841577 0.06475330071449431 -8.113843769037372 -0.026847988743349524 -0.009175534586441284 44.60442011960855 0.015602760259349436 0.0005137331118010033 44.570566976911614 12.49546399251782 -0.006829346712748379 -0.007354283993610951 -0.028450395377067176 0.035808001247102754 0.02348619219634818 0.03496278385817457 0.017094496452227277 -0.015173926806702894 11.115406529669686 -0.03816304468101555 -0.015182915320625961 -0.005598051500285857 -0.04118524355131747 -0.03538446934982644 -0.047605987907056634 -0.0014952387659624288 -0.042880068834534976 4.7918265497156165 -0.04788018081929352 -0.04099951663804481 0.0167372285512023 0.007205742495670439 -0.021338681641280974 -0.022975102102499242 -0.019932380342649835 0.020364165447844723 -5.567305857549941 -0.03283361060785822 -0.04012510664571115 -6.722143654976795 0.03256654740150134 0.04907423648348378 -6.690069739384572 0.022533291738976963 -0.02130780333625894 0.026665333214452996 -0.03825485763275825 -0.029209361814988524 8.072501739849782 3.4619088730967333 -19.209063812858773 0.015757037198603902 10.357721698654096 -0.02723640379491735 -5.575132955384992 -15.634288498203663 3.2239461317688862 0.0276374268986604 0.017356481620006203 0.014328344313217644 -0.0036585294692071998 4.730222306259699 0.006141151697968991 12.468719134325989 -8.202171455585148 6.91647755892902 -0.03824426828715268 46.34704798677385 -0.004248152870715266 -4.283699284280103 -14.759827397299508 -3.8053919599235355 0.04360433928701816 -0.04676062174044838 -0.006165723608675984 -0.0317920161563479 -10.766743216385871 -0.03986220329418343 
-0.048824893262874966 -0.027080102815177712 0.028744145917845132 0.030360771272654904 0.008551954495571322 -0.013090250202592319 -1.2133677373029497 0.8550563433467807 -1.0141613633647875 -0.8968124181956811 3.870401982597358 0.38120088395543616 -1.2031184429106214 -1.7157354474786723 -0.7480049164574434 0.978013118752289 0.5171557991845395 -0.7648379148908533 0.9235563724889352 12.415557084738301 -2.8424638222212972 0.01296060345019235 -0.772430497486233 -8.491053278776924 1.0464812802219527 -16.36138863044327 -0.6742228848424732 -4.680750541423432 1.5175461613855563 -15.769457732427867 73.0146724601463 22.59397316102369 3.3847297999025447 2.02229834271048 2.001944759260045 42.02369118396955 20.727532812352905 -0.13975920743569942 -3.861093648212418 4.5204462318214125 -0.10078878761998566 -1.5616533664975405 0.029136797706704527 0.03501497835033519 -56.281435531956525 -0.012797930901323999 0.00934896846314874 -56.27765399556334 -38.816870390800055 0.019252617084639174 0.023469550059585856 0.009923976416031337 0.030746141623474114 -0.0440975928827799 -0.022395609229426787 -0.022548212842511246 0.007464282297844513 -36.70961734482612 0.027327116560781475 0.0034467749741158914 0.029442677119200494 -0.02974235537428996 -0.04114377884214276 0.017450433233006966 0.028501589732172695 0.00832795857624783 -19.73788697977252 0.015646939517796398 -0.023971622655869065 -0.023146279618112747 0.009621830821709683 -0.022677331130394263 0.04341981709452717 0.048953486197884935 -0.03934328719204144 24.04243959039903 0.024491334219661525 0.003533674159165506 28.90487746973304 -0.007291119093424972 -0.025327689215150856 28.82120156445857 0.02259878228519082 -0.02585440118032642 3.5386519674281307 0.9201348046307866 13.504477471698923 -72.01240800078936 26.914497180990892 -0.011974640925350857 -2.1787094344834266 -9.013282990627097 -42.67212941600314 -14.00245391451243 -0.7693605363874735 3.1428965134818867 -0.49985366871030107 0.054522859022186586 -8.11199914017366 -0.0077689193634987 0.033167145882106626 44.594000803635694 -0.048227532616458985 -0.04055227851833633 44.58834520875731 12.49459912830301 0.014310033170327582 0.04062955446504532 0.0141208220857125 0.01207592780290165 0.04579239027589126 0.018584833370612466 -0.021872770697420017 -0.0035649042873947675 11.059247652674625 0.015345194300977168 -0.02957875289926171 0.04642373980836971 -0.021736126173639393 -0.03687120376501922 -0.03010742963607929 -0.024857802272077362 0.03576929797794111 4.7619145840680535 -0.03699326734674756 0.040375961851544524 -0.006779375260333562 -0.013994910922511315 -0.02323539881705912 0.010326160873680759 -0.03465905571101157 0.048360245480411526 -5.588858952412048 0.012039801720117338 -0.03599576031084856 -6.673122397461106 -0.03902643186933852 0.002001680639114813 -6.680666055265349 -0.01640441368322291 -0.016634096451582838 -0.0247558463870307 0.011520880863584914 0.012462432324751664 8.045384050758896 3.5154235136365024 -19.189204108189003 -0.04005864538504142 10.439034057568657 -0.010217164029977108 -5.5998563733604705 -15.620376980308636 3.1881035797496646 -0.001956417731048654 -0.027813575033125048 -0.007946145148989394 -0.017852972945497775 4.69183550187326 -0.03833227664108723 12.419559223043082 -8.283852501885681 6.870092400099755 0.031271588372504946 46.346828725796506 -0.04328961415298695 -4.291079611578964 -14.777801536647138 -3.8626681969360823 -0.043239552981738774 0.04989622103910897 -0.005599550413372834 -0.03968804575799538 -10.779595869874166 0.028496904632625705 
-0.0007785022949191954 -0.026475351062876934 0.01677953178700182 -0.02405898148519653 0.006607994214189375 -0.012855046515654523 -1.1794043843428004 0.8627253905005176 -1.0536466385882675 -0.926076929495441 3.906912091787939 0.3962936415475473 -1.2463182828888526 -1.668544617888408 -0.8253924809373246 1.0507309778489027 0.5217792832264432 -0.7616563828813646 0.9634488003981075 12.346918407816814 -3.05847443516185 0.07177073875461243 -0.8850188832215543 -8.963849114305633 1.1349582187923337 -16.507326541015267 -0.7168081958945847 -4.788092662015366 1.5043895610562958 -15.979127426648796 73.04845332436301 22.307726896303684 2.8362943674074623 1.5808268300047639 1.8623000971166692 42.40142099393025 20.451846101487977 -0.08359927726530077 -3.8684999809511265 4.479839419748922 -0.10305184115396296 -1.6325882413752049 0.0315141405340013 -0.04961833029832781 -56.24912236147464 0.04831483164817273 0.009745302224894052 -56.20385281926355 -38.75323530978536 0.003330476137031767 -0.002633747045205819 -0.0479359159104759 -0.014794938558540166 0.04352103374481575 -0.03651497974511209 0.004982122881741579 -0.00276470682448826 -36.74216913519397 -0.021278784624959163 -0.004411151128797451 0.031077996005013635 -0.012055831279247281 0.006743348347912433 0.012746100419235948 -0.04316634933597441 0.03994839604957629 -19.757166341713106 0.028868861010495947 -0.03262054340735529 -0.04921561175850418 -0.010413212793696067 0.030883906088308172 -0.049899493464146835 -0.026832040430602975 -0.014857966000624424 24.017730528378877 0.025858003569748232 0.03043770336296469 28.872380335842966 -0.035290668307817546 0.002502135053068369 28.89268651981629 0.006123739581190732 -0.014839388945599642 3.5220743098588825 0.9953629772313018 13.528705394063143 -72.16444799788744 27.360409725442775 0.1604079889396158 -1.2046677223947608 -9.034154673500252 -42.82621337536179 -13.90426218144638 -0.7270366467183109 3.2383308909854063 -0.5010558089150605 0.09021082305569739 -8.102560711651229 -0.0020863509292503974 0.012748044732000837 44.58799939680125 0.04952298026585293 -0.030800834136069714 44.562860802462296 12.475957478769491 0.009720330177883603 -0.008216616382459267 0.011079153809061701 0.003768613207630981 -0.0465883896252224 -0.03572035497777553 -0.014474778653190926 0.03318625288186509 11.113080294336642 -0.026565203588517616 0.04584614509682464 -0.04011902872757304 0.033891469369955185 -0.008808160278402541 0.040056969087478606 -0.0005008371076976656 0.04107928271658623 4.796991335764697 0.013518500384021262 0.018286728106488688 0.012399244196238366 0.010840774832482483 -0.026730680694145185 -0.04312726838657912 0.03363732803303141 -0.012466339216690494 -5.62672533507193 0.04632890931940385 0.01564803117781259 -6.72850843406112 0.008801536257542477 -0.04449624252559505 -6.743043030999482 -0.011790383698522389 0.02651613528847807 -0.04615817912728273 0.00884834552279926 -0.008130261475400233 8.017631724004746 3.4508897545502175 -19.18215631799745 0.006892398354812554 10.395709871214455 0.008574867933556805 -5.612658689087638 -15.651126465929122 3.200238423986793 -0.04603334292002944 -0.028907884446286624 -0.02752152487103425 0.008946699149294008 4.728564778812736 -0.0021885729987239583 12.433635224686341 -8.283825060134898 6.835950393543641 -0.019355283373206026 46.36839059448789 0.008970346227356915 -4.277570092334253 -14.744847914753473 -3.8629551277338328 -0.04437149703924738 0.027846503210907158 0.04464565729122735 0.003344814192530814 -10.767447733909044 0.03355666062619939 
0.03217074546074877 0.014815909705660053 0.04077783767503593 -0.04786825863525654 -0.005927146960637682 -0.0444037768845649 -1.198680702661648 0.8942265732409578 -1.0077748482216862 -0.890375547766808 3.8517322144144837 0.3762321891866233 -1.2643063997848678 -1.6957993172096046 -0.8181305417648966 1.023206988724954 0.49775097826312925 -0.7727539537700348 0.9916750009642764 12.251493098342324 -3.2596315857114457 0.1690752505888976 -0.9942083215368778 -9.185940937557268 1.2574760281933592 -16.763819788584236 -0.8145849360966722 -4.9621802207111765 1.560597222019644 -16.0958226833139 72.93908409434802 21.98902073129408 2.056644397654855 1.011472802851734 1.6405329146117331 42.34637272808234 20.313038558239175 -0.0861339080615271 -3.8058748759093883 4.538999190447682 -0.13255240020374384 -1.6279148579221963 0.046482345709174845 0.023074853877937885 -56.21951063956251 0.0019364405376419882 -0.02620675389986159 -56.22840146302693 -38.779627782251644 -0.004322540557479507 -0.004741980796518885 0.002454385694806278 0.01978217240747687 -0.02232210909408682 0.010679604145168218 -0.03042700917296868 0.0017609297835658152 -36.65102807547962 -0.022105597821493496 0.007121626415402602 -0.015044948377406036 -0.01467614814496589 -0.01922571697073692 -0.01822041920757485 -0.030448478116495037 -0.044424516282909124 -19.769009471575515 0.008398496644999023 -0.029614857198131582 0.017970476684100536 0.017301728491295503 -0.02764309086373862 -0.02691963937797638 -0.04653564671384973 0.023268550400509454 24.097925798720667 -0.03340026770054782 -0.01454109791121238 28.85537654344863 -0.014752504474555995 0.03145708837737069 28.88876738499399 0.007409943840304777 0.010970306439901259 3.5088117619955064 0.9381293223109801 13.600116542626884 -72.25917937930375 27.649604042258222 0.3685778380087231 -0.4369707328061981 -9.196199965670727 -42.66278440359289 -13.876622712315596 -0.78083012391537 3.3085917777216953 -0.4352088926137024 0.09196272475377835 -8.158834759693763 0.04146220943130789 0.034144147134411086 44.55712134764558 0.03448263083387611 -0.043255702834776484 44.573119365302496 12.430915398708018 -0.003113663028211638 -0.018026593191172675 0.00496710112067977 -0.00923864933861146 -0.01251262951830791 0.010193690418351569 -0.04707643963083978 0.007700232915678223 11.094393412941887 -0.03377947469909916 0.03942480633311909 -0.025921492391539538 0.0049203659937686745 -0.03331055403281957 -0.020393264187439045 0.04634007730026563 -0.030177774413341175 4.785138320881727 -0.014393874675649586 0.021031960850944793 0.009924379007526882 -0.049933066991655166 0.024222428466035 -0.02173218007669346 -0.027168967167997438 0.03132642495890465 -5.583995028944245 -0.0007426005733143563 0.040755271377732154 -6.730882361782856 0.01048601476182719 -0.012670365412091439 -6.714156400184722 -0.04254421159277303 0.01562867438893306 0.00740168918276344 -0.023928218461456503 -0.041485734828430335 8.001818608823854 3.462584910573211 -19.233091227746844 0.02967586141183716 10.418572898747772 0.027371947284349225 -5.634786689236854 -15.677725846276788 3.208666868691416 0.006726318131408769 0.006273799171614689 0.0474581483754873 0.012807767439600284 4.720197704933976 -0.025798159591489192 12.421180979291726 -8.221414737602418 6.854192712170264 -0.021258828130208098 46.38267702363991 0.018298487824010952 -4.316601266196187 -14.7761422949661 -3.7864138717811198 -0.002402921173692175 -0.03448758189294736 0.006679892697998018 0.031763087718888444 -10.773369911977127 0.028839382476867178 
